<?xml version="1.0" encoding="UTF-8" standalone="no"?>
<svg
   xmlns:dc="http://purl.org/dc/elements/1.1/"
   xmlns:cc="http://creativecommons.org/ns#"
   xmlns:rdf="http://www.w3.org/1999/02/22-rdf-syntax-ns#"
   xmlns:svg="http://www.w3.org/2000/svg"
   xmlns="http://www.w3.org/2000/svg"
   xmlns:sodipodi="http://sodipodi.sourceforge.net/DTD/sodipodi-0.dtd"
   xmlns:inkscape="http://www.inkscape.org/namespaces/inkscape"
   width="2040"
   height="2040"
   viewBox="0 0 539.75001 539.74998"
   version="1.1"
   id="svg8"
   inkscape:version="1.0.2 (e86c8708, 2021-01-15)"
   sodipodi:docname="MHF-Black.svg"
   inkscape:export-filename="/Users/a/code/mhf-repos/media-kit/logo-1-color/MHF-Black-1000x1000.png"
   inkscape:export-xdpi="47.058823"
   inkscape:export-ydpi="47.058823">
  <defs
     id="defs2">
    <marker
       style="overflow:visible"
       id="marker1149"
       refX="0"
       refY="0"
       orient="auto"
       inkscape:stockid="Arrow1Lstart"
       inkscape:isstock="true">
      <path
         transform="matrix(0.8,0,0,0.8,10,0)"
         style="fill:#d40000;fill-opacity:1;fill-rule:evenodd;stroke:#d40000;stroke-width:1pt;stroke-opacity:1"
         d="M 0,0 5,-5 -12.5,0 5,5 Z"
         id="path1147" />
    </marker>
    <marker
       style="overflow:visible"
       id="Arrow1Lstart"
       refX="0"
       refY="0"
       orient="auto"
       inkscape:stockid="Arrow1Lstart"
       inkscape:isstock="true">
      <path
         transform="matrix(0.8,0,0,0.8,10,0)"
         style="fill:#d40000;fill-opacity:1;fill-rule:evenodd;stroke:#d40000;stroke-width:1pt;stroke-opacity:1"
         d="M 0,0 5,-5 -12.5,0 5,5 Z"
         id="path871" />
    </marker>
    <filter
       inkscape:collect="always"
       style="color-interpolation-filters:sRGB"
       id="filter1213"
       x="-2.9999999e-05"
       width="1.00006"
       y="-2.9999999e-05"
       height="1.00006">
      <feGaussianBlur
         inkscape:collect="always"
         stdDeviation="0.0066145836"
         id="feGaussianBlur1215" />
    </filter>
  </defs>
  <sodipodi:namedview
     id="base"
     pagecolor="#ffffff"
     bordercolor="#666666"
     borderopacity="1.0"
     inkscape:pageopacity="0.0"
     inkscape:pageshadow="2"
     inkscape:zoom="0.175"
     inkscape:cx="1087.6575"
     inkscape:cy="609.47826"
     inkscape:document-units="mm"
     inkscape:current-layer="g1314"
     inkscape:document-rotation="0"
     showgrid="false"
     units="px"
     inkscape:window-width="1178"
     inkscape:window-height="920"
     inkscape:window-x="1342"
     inkscape:window-y="1535"
     inkscape:window-maximized="0"
     fit-margin-top="0"
     fit-margin-left="0"
     fit-margin-right="0"
     fit-margin-bottom="0" />
  <metadata
     id="metadata5">
    <rdf:RDF>
      <cc:Work
         rdf:about="">
        <dc:format>image/svg+xml</dc:format>
        <dc:type
           rdf:resource="http://purl.org/dc/dcmitype/StillImage" />
        <dc:title />
      </cc:Work>
    </rdf:RDF>
  </metadata>
  <g
     inkscape:label="Circle"
     inkscape:groupmode="layer"
     id="layer1"
     style="display:inline;opacity:1;filter:url(#filter1213)"
     transform="translate(5.2910156,5.2910156)">
    <circle
       style="fill:#000000;fill-opacity:0.975708;stroke:none;stroke-width:0.269198"
       id="path833"
       cx="264.58334"
       cy="264.58334"
       r="264.58334" />
  </g>
  <g
     inkscape:groupmode="layer"
     id="layer2"
     inkscape:label="Heart"
     transform="translate(5.2910156,5.2910156)">
    <path
       style="fill:#ffffff;stroke:none;stroke-width:0.15011500000000000px;stroke-linecap:butt;stroke-linejoin:miter;stroke-opacity:1"
       d="m 197.33163,133.96647 c 0,0 -29.16524,-52.754781 -68.62412,-41.603371 -39.458856,11.151421 -45.463456,57.901601 -31.738636,83.206741 11.598046,21.3839 104.651766,108.94078 104.651766,108.94078 0,0 143.25284,-126.09681 94.78705,-187.858511 -27.83309,-35.46873 -63.9062,-14.58262 -75.48653,-1.2867 -11.58031,13.295921 -23.58953,38.601061 -23.58953,38.601061 z"
       id="path848"
       sodipodi:nodetypes="csscssc" />
  </g>
  <g
     inkscape:groupmode="layer"
     id="layer6"
     inkscape:label="MHF"
     transform="translate(5.2910156,5.2910156)">
    <path
       id="path1218"
       style="fill:#ffffff;fill-opacity:1;stroke:none;stroke-width:0.28096199999999999px;stroke-linecap:butt;stroke-linejoin:miter;stroke-opacity:1"
       d="m 252.49881,353.22624 c 2.05471,-9.91132 4.90544,-20.46583 12.62841,-27.55171 3.47594,-3.03814 8.31076,-5.88653 13.0396,-4.16854 4.85011,2.17899 6.15988,7.8868 6.9794,12.63522 0.46118,2.40915 0.11011,4.91044 -0.66875,7.21566 3.55456,-2.44233 4.6252,-7.03986 7.86503,-9.82629 2.37775,-2.22314 6.01814,-4.43833 9.28039,-2.8162 3.8699,2.03169 5.71824,6.33843 7.36585,10.15272 1.49207,4.57707 1.44286,9.57707 0.64453,14.27232 -1.22327,2.77802 -3.45938,5.01215 -4.26316,8.00793 -2.64629,6.67514 -5.29696,13.76119 -10.87161,18.59417 -2.18914,2.87859 -6.64279,3.41838 -9.36206,0.99198 -2.59881,-2.58605 -0.22225,-6.39389 0.3096,-9.39247 0.98284,-3.13881 2.26574,-6.28021 2.24662,-9.62252 -1.62242,-3.48551 -5.55934,-0.41006 -7.77407,0.77082 -1.80773,2.04894 -6.58725,3.30598 -6.53313,-0.77692 -1.09859,-3.46859 -2.4592,-6.90102 -2.8449,-10.54619 1.35733,-2.27675 -0.60203,-6.59304 -2.2585,-2.58041 -4.52199,7.30054 -7.81338,15.36135 -13.12573,22.16508 -3.01342,1.17424 -2.98728,-3.9471 -5.17309,-5.12801 -2.13707,-4.20173 1.04593,-8.55813 2.51557,-12.39664 z" />
    <path
       id="path1220"
       style="fill:#ffffff;fill-opacity:1;stroke:none;stroke-width:0.30156800000000000px;stroke-linecap:butt;stroke-linejoin:miter;stroke-opacity:1"
       d="m 356.42118,280.32448 c -10.64179,29.13403 -20.25223,58.65947 -31.75581,87.46918 -3.901,7.94017 -8.92268,15.30877 -12.29341,23.51226 -5.54094,3.786 0.98012,14.99194 6.17278,8.95191 7.60766,-5.7637 10.05881,-15.42634 13.3096,-23.86506 5.33199,-6.22685 10.28918,3.58022 11.24461,8.28848 2.85976,7.07902 -0.57843,14.13285 -2.13609,20.97449 -1.36264,5.9805 5.88058,10.85329 11.1039,9.21409 5.10438,-3.78349 4.99195,-10.89374 6.89039,-16.41863 2.55789,-10.34812 4.99655,-21.61309 1.54263,-32.01392 -2.08153,-7.4593 -14.27323,-5.42762 -13.83082,-13.31371 0.37379,-5.39288 2.707,-10.45016 2.82588,-15.88672 1.52775,-9.56027 4.48352,-18.84511 8.60371,-27.59082 3.56263,-9.74387 6.21899,-19.83889 8.82311,-29.83829 0.24861,-6.1317 -6.22013,-4.57809 -8.42131,-0.76158 -0.64343,0.49967 -1.32983,0.95279 -2.07921,1.27832 z" />
    <path
       id="path1251"
       style="fill:#ffffff;fill-opacity:1;stroke:none;stroke-width:0.26458300000000001px;stroke-linecap:butt;stroke-linejoin:miter;stroke-opacity:1"
       d="m 399.84196,373.07498 c -7.82254,-5.95592 -26.33076,-9.66402 -20.50279,6.2051 8.85817,6.24097 18.52349,14.31604 9.71611,25.65162 -3.07723,9.2626 -13.17377,23.52192 -1.61868,30.55592 15.77008,0.0403 14.46597,-23.51446 20.43926,-34.41996 3.86759,-9.24652 24.58444,6.97272 22.3339,-10.84285 -8.53936,-5.91214 -15.11561,-13.35139 -8.80951,-24.21018 3.26681,-13.93425 1.53939,-31.59971 13.80742,-41.44907 13.32409,-3.0055 9.54847,17.68976 8.48089,25.91484 -0.37744,13.20378 16.12916,3.89614 12.31444,-5.80633 2.51289,-12.62901 0.19079,-30.35491 -13.82436,-34.82543 -15.77461,-0.22141 -24.67716,15.97036 -30.53915,28.41604 -6.58432,10.89683 -3.40722,24.97711 -11.79753,34.8103 z" />
  </g>
  <g
     inkscape:groupmode="layer"
     id="g1314"
     inkscape:label="Continents"
     transform="translate(5.2910156,5.2910156)">
    <path
       id="path1310"
       style="fill:#ffffff;fill-opacity:1;stroke:none;stroke-width:0.99999899999999997px;stroke-linecap:butt;stroke-linejoin:miter;stroke-opacity:1"
       d="m 1974.9883,1099.7383 c 0.815,-8.0735 1.5382,-16.1744 2.1562,-24.3047 0.6309,-8.2982 1.157,-16.6256 1.5801,-24.9805 0.4231,-8.3549 0.7422,-16.7374 0.9551,-25.1465 0.2128,-8.409 0.3203,-16.8441 0.3203,-25.3046 0,-8.46061 -0.1075,-16.89572 -0.3203,-25.30473 -0.2129,-8.40902 -0.532,-16.79158 -0.9551,-25.14649 -0.4231,-8.35491 -0.9492,-16.68223 -1.5801,-24.98047 -0.6308,-8.29824 -1.3651,-16.56763 -2.2011,-24.80664 -0.836,-8.23901 -1.7739,-16.44778 -2.8125,-24.625 -1.0386,-8.17722 -2.1774,-16.32267 -3.4161,-24.43555 -1.2386,-8.11287 -2.5775,-16.19231 -4.0136,-24.23828 -1.4362,-8.04596 -2.9705,-16.05866 -4.6016,-24.03515 -1.631,-7.9765 -3.3582,-15.9178 -5.1816,-23.82227 -1.8234,-7.90446 -3.7427,-15.77168 -5.7559,-23.60156 -2.0132,-7.82988 -4.1218,-15.62227 -6.3223,-23.375 -2.2004,-7.75273 -4.4937,-15.46566 -6.8789,-23.13867 -2.3851,-7.67302 -4.8604,-15.30574 -7.4277,-22.89649 -2.5672,-7.59074 -5.2258,-15.14057 -7.9727,-22.64648 -2.7468,-7.50592 -5.582,-14.9682 -8.5058,-22.38672 -2.9238,-7.41852 -5.9369,-14.79252 -9.0352,-22.12109 -3.0982,-7.32858 -6.2826,-14.6116 -9.5527,-21.84766 -3.2701,-7.23606 -6.625,-14.42542 -10.0645,-21.56641 -3.4394,-7.14098 -6.9621,-14.23398 -10.5683,-21.27734 -3.6062,-7.04336 -7.296,-14.03731 -11.0664,-20.98047 -3.7704,-6.94316 -7.6227,-13.83537 -11.5547,-20.67578 -3.9321,-6.84041 -7.944,-13.62818 -12.0352,-20.36328 -4.0911,-6.7351 -8.2601,-13.4177 -12.5078,-20.04492 -4.2476,-6.62723 -8.573,-13.20001 -12.9746,-19.7168 -4.4016,-6.51679 -8.8806,-12.97706 -13.4336,-19.38086 -4.553,-6.40379 -9.181,-12.75082 -13.8828,-19.03906 -4.7018,-6.28824 -9.4781,-12.51738 -14.3262,-18.6875 -4.8481,-6.17013 -9.7679,-12.28063 -14.7597,-18.33008 -4.9919,-6.04945 -10.0546,-12.03863 -15.1875,-17.96484 -5.133,-5.92622 -10.3359,-11.78943 -15.6075,-17.58985 -5.2715,-5.80042 -10.6119,-11.53692 -16.0195,-17.20898 -5.4076,-5.67207 -10.8827,-11.27917 -16.4238,-16.82031 -5.5411,-5.54115 -11.1483,-11.01616 -16.8203,-16.42383 -5.672,-5.40767 -11.4086,-10.7479 -17.209,-16.01953 -5.8004,-5.27164 -11.6637,-10.47634 -17.5899,-15.60938 -5.9261,-5.13304 -11.9154,-10.19562 -17.9648,-15.1875 -6.0494,-4.99188 -12.16,-9.9116 -18.3301,-14.75976 -6.17,-4.84817 -12.3993,-9.62429 -18.6875,-14.32618 -6.2882,-4.70188 -12.6353,-9.32976 -19.039,-13.88281 -6.4038,-4.55305 -12.8642,-9.03194 -19.3809,-13.43359 -6.5167,-4.40165 -13.0896,-8.72692 -19.7168,-12.97461 -6.6272,-4.24769 -13.3079,-8.41664 -20.043,-12.50781 -6.735,-4.09118 -13.5248,-8.10502 -20.3652,-12.03711 -6.8404,-3.9321 -13.7327,-7.78229 -20.6758,-11.55274 -6.9431,-3.77045 -13.9371,-7.46015 -20.9804,-11.0664 -7.0434,-3.60626 -14.1345,-7.12887 -21.2754,-10.56836 -7.141,-3.4395 -14.3304,-6.79624 -21.5664,-10.06641 -4.7993,-2.16892 -9.6502,-4.24244 -14.4903,-6.33594 -9.7681,15.70361 -20.7929,30.81155 -26.0625,48.37696 C 1347.8979,198.43729 1412.9627,304.24104 1440,340 c 15.077,19.94058 31.6161,38.77332 48.5723,57.14258 17.9887,19.48777 49.2661,33.57961 54.2851,62.85742 3.5265,20.57095 12.2737,74.21881 0,102.85742 -5.2119,12.16112 -14.3843,22.30511 -20,34.28516 -11.0705,23.61721 -28.5722,61.918 -28.5722,91.42969 0,8.78052 3.4524,17.22887 5.7148,25.71289 5.3595,20.09797 11.2734,40.04488 17.1426,60 8.0817,27.47807 28.1166,91.08439 37.1426,108.57226 19.0297,36.8702 43.439,70.71007 65.7148,105.71485 21.9482,34.49003 48.5124,54.26723 88.5723,65.71293 9.3388,2.6682 19.315,2.77 28.5703,5.7148 59.8588,19.046 8.0747,11.5269 74.2851,25.7148 34.9714,7.494 57.4498,6.0588 94.2871,8.5704 24.3846,1.6626 46.7699,4.0523 69.2735,5.4531 z"
       transform="scale(0.26458333)" />
    <path
       id="path1312"
       style="display:inline;fill:#ffffff;fill-opacity:1;stroke:none;stroke-width:0.99999899999999997px;stroke-linecap:butt;stroke-linejoin:miter;stroke-opacity:1"
       d="m 77.523438,1331.6191 c 0.649038,1.8066 1.254735,3.6339 1.914062,5.4356 2.746848,7.5059 5.583963,14.9682 8.507812,22.3867 2.92385,7.4185 5.934913,14.7926 9.033204,22.1211 3.098294,7.3285 6.282564,14.6116 9.552734,21.8477 3.27017,7.236 6.62691,14.4254 10.06641,21.5664 3.43949,7.1409 6.9621,14.232 10.56836,21.2754 3.60625,7.0433 7.29595,14.0373 11.0664,20.9804 3.77045,6.9431 7.62064,13.8354 11.55274,20.6758 3.93209,6.8404 7.94593,13.6302 12.03711,20.3652 4.09117,6.7351 8.26012,13.4158 12.50781,20.043 4.24769,6.6272 8.57296,13.2001 12.97461,19.7168 4.40165,6.5167 8.88054,12.9771 13.43359,19.3809 4.55305,6.4037 9.18093,12.7508 13.88281,19.039 4.70189,6.2882 9.47801,12.5175 14.32618,18.6875 4.84816,6.1701 9.76788,12.2807 14.75976,18.3301 4.99188,6.0494 10.05446,12.0387 15.1875,17.9648 5.13304,5.9262 10.33774,11.7895 15.60938,17.5899 5.27163,5.8004 10.61186,11.537 16.01953,17.209 5.40767,5.672 10.88268,11.2792 16.42383,16.8203 5.54114,5.5411 11.14824,11.0162 16.82031,16.4238 5.67206,5.4076 11.40856,10.748 17.20898,16.0195 5.80042,5.2716 11.66363,10.4745 17.58985,15.6075 5.92621,5.1329 11.91539,10.1956 17.96484,15.1875 6.04945,4.9918 12.15995,9.9116 18.33008,14.7597 6.17012,4.8481 12.39926,9.6244 18.6875,14.3262 6.28824,4.7018 12.63527,9.3298 19.03906,13.8828 6.4038,4.553 12.86407,9.032 19.38086,13.4336 6.51679,4.4016 13.08957,8.727 19.7168,12.9746 6.62722,4.2477 13.30982,8.4167 20.04492,12.5078 6.7351,4.0912 13.52287,8.1031 20.36328,12.0352 6.84041,3.932 13.73262,7.7843 20.67578,11.5547 6.94316,3.7704 13.93711,7.4602 20.98047,11.0664 7.04336,3.6062 14.13636,7.1289 21.27734,10.5683 7.14099,3.4395 14.33035,6.7944 21.56641,10.0645 7.23606,3.2701 14.51908,6.4545 21.84766,9.5527 7.32857,3.0983 14.70257,6.1114 22.12109,9.0352 7.41852,2.9238 14.8808,5.759 22.38672,8.5058 7.50591,2.7469 15.05574,5.4055 22.64648,7.9727 7.59075,2.5673 15.22347,5.0426 22.89649,7.4277 7.67301,2.3852 15.38594,4.6785 23.13867,6.8789 7.75273,2.2005 15.54512,4.3091 23.375,6.3223 7.82988,2.0132 15.6971,3.9325 23.60156,5.7559 7.90447,1.8234 15.84577,3.5506 23.82227,5.1816 7.97649,1.6311 15.98919,3.1654 24.03515,4.6016 8.04597,1.4361 16.12541,2.775 24.23828,4.0136 8.11288,1.2387 16.25833,2.3775 24.43555,3.4161 8.17722,1.0386 16.38599,1.9765 24.625,2.8125 8.23901,0.836 16.5084,1.5703 24.80664,2.2011 8.29824,0.6309 16.62556,1.157 24.98047,1.5801 8.35491,0.4231 16.73747,0.7422 25.14649,0.9551 8.40901,0.2128 16.84412,0.3203 25.30473,0.3203 8.4605,0 16.8956,-0.1075 25.3046,-0.3203 8.4091,-0.2129 16.7916,-0.532 25.1465,-0.9551 8.3549,-0.4231 16.6823,-0.9492 24.9805,-1.5801 8.2982,-0.6308 16.5676,-1.3651 24.8066,-2.2011 8.239,-0.836 16.4478,-1.7739 24.625,-2.8125 8.1772,-1.0386 16.3227,-2.1774 24.4356,-3.4161 8.1128,-1.2386 16.1943,-2.5775 24.2402,-4.0136 8.046,-1.4362 16.0567,-2.9705 24.0332,-4.6016 7.9765,-1.631 15.9178,-3.3582 23.8223,-5.1816 7.9044,-1.8234 15.7717,-3.7427 23.6015,-5.7559 7.8299,-2.0132 15.6224,-4.1218 23.375,-6.3223 7.7527,-2.2004 15.4657,-4.4937 23.1387,-6.8789 7.673,-2.3851 15.3058,-4.8604 22.8965,-7.4277 7.5907,-2.5672 15.1406,-5.2258 22.6465,-7.9727 7.5059,-2.7468 14.9682,-5.582 22.3867,-8.5058 7.4185,-2.9238 14.7926,-5.9369 22.1211,-9.0352 7.3285,-3.0982 14.6116,-6.2826 21.8477,-9.5527 7.236,-3.2701 14.4254,-6.625 21.5664,-10.0645 5.4174,-2.6093 10.7791,-5.312 16.1406,-8.0175 -71.3189,-38.5253 -149.8821,-48.0105 -229.6895,-58.2422 -16.1698,-2.0731 -32.556,-2.6646 -48.5703,-5.7149 -44.0408,-8.3888 -89.256,-13.36 -131.4297,-28.5703 C 964.14133,1758.5902 974.33228,1673.8589 965.71484,1620 958.264,1573.4321 953.25688,1547.8383 922.85742,1508.5723 912.92891,1495.748 898.08153,1487.6355 885.71484,1477.1426 826.93038,1427.2649 784.67476,1382.9952 700,1394.2852 c -14.87785,1.9837 -49.38036,30.1697 -51.42773,31.4296 -55.68945,34.2704 -60.52081,28.4778 -148.57227,22.8575 -23.00428,-1.4683 -102.44576,-84.0328 -111.42773,-91.4297 -43.36981,-35.7164 -38.35685,-28.1368 -94.28711,-45.7149 -15.23033,-4.7867 -29.75054,-14.0051 -45.71289,-14.2851 -71.03385,-1.2463 -120.10396,7.9592 -171.048832,34.4765 z"
       transform="scale(0.26458333)" />
  </g>
  <g
     inkscape:groupmode="layer"
     id="g1278"
     inkscape:label="Globe Outline Path"
     style="display:inline"
     transform="translate(5.2910156,5.2910156)">
    <path
       style="color:#000000;font-style:normal;font-variant:normal;font-weight:normal;font-stretch:normal;font-size:medium;line-height:normal;font-family:sans-serif;font-variant-ligatures:normal;font-variant-position:normal;font-variant-caps:normal;font-variant-numeric:normal;font-variant-alternates:normal;font-variant-east-asian:normal;font-feature-settings:normal;font-variation-settings:normal;text-indent:0;text-align:start;text-decoration:none;text-decoration-line:none;text-decoration-style:solid;text-decoration-color:#000000;letter-spacing:normal;word-spacing:normal;text-transform:none;writing-mode:lr-tb;direction:ltr;text-orientation:mixed;dominant-baseline:auto;baseline-shift:baseline;text-anchor:start;white-space:normal;shape-padding:0;shape-margin:0;inline-size:0;clip-rule:nonzero;display:inline;overflow:visible;visibility:visible;opacity:1;isolation:auto;mix-blend-mode:normal;color-interpolation:sRGB;color-interpolation-filters:linearRGB;solid-color:#000000;solid-opacity:1;vector-effect:none;fill:#000000;fill-opacity:0.97647059;fill-rule:nonzero;stroke:none;stroke-linecap:butt;stroke-linejoin:miter;stroke-miterlimit:4;stroke-dasharray:none;stroke-dashoffset:0;stroke-opacity:1;color-rendering:auto;image-rendering:auto;shape-rendering:auto;text-rendering:auto;enable-background:accumulate;stop-color:#000000;stop-opacity:1"
       d="m 264.58398,-5.2910156 c -148.98517,0 -269.8749956,120.8898256 -269.8749956,269.8749956 0,148.98518 120.8898256,269.875 269.8749956,269.875 148.98518,0 269.875,-120.88982 269.875,-269.875 0,-148.98517 -120.88982,-269.8749956 -269.875,-269.8749956 z m 0,10.5820312 C 407.8495,5.2910156 523.875,121.31847 523.875,264.58398 523.875,407.8495 407.8495,523.875 264.58398,523.875 121.31847,523.875 5.2910156,407.8495 5.2910156,264.58398 5.2910156,121.31847 121.31847,5.2910156 264.58398,5.2910156 Z"
       id="circle1276"
       inkscape:export-filename="/Volumes/GoogleDrive-112634143272162960119/Shared drives/Volunteers/Heart-Globe-MHF-Color-04.png"
       inkscape:export-xdpi="90"
       inkscape:export-ydpi="90" />
  </g>
</svg>
